<?xml version="1.0" encoding="UTF-8"?>
<svg version="1.1" xmlns="http://www.w3.org/2000/svg" width="500" height="500">
<path d="M0 0 C0.680625 0.63808594 1.36125 1.27617188 2.0625 1.93359375 C7.18870181 6.88180244 11.58892239 12.41853792 16 18 C16.49306641 18.61665527 16.98613281 19.23331055 17.49414062 19.86865234 C44.49863442 53.7408118 62.11977023 93.1757276 69 136 C69.11714355 136.71768555 69.23428711 137.43537109 69.35498047 138.17480469 C76.57683744 184.98273949 68.75975845 238.66378101 45.98388672 280.19091797 C44.96054123 282.07255321 43.97906657 283.97189434 43.00390625 285.87890625 C34.25535267 302.87658391 23.03485628 318.86128855 9.9921875 332.85546875 C8.19306211 334.79217432 6.50290804 336.78148736 4.8125 338.8125 C-33.99204508 383.16055152 -94.09596833 408.98878592 -152.0390625 413.8190918 C-216.61768578 417.76473492 -279.83475111 397.89513519 -328.93359375 355.46484375 C-332.0110455 352.69638987 -335.01884501 349.87127814 -338 347 C-338.65935547 346.36787598 -339.31871094 345.73575195 -339.99804688 345.08447266 C-349.47586327 335.95008671 -358.2846379 326.67576108 -366 316 C-367.16402344 314.40091797 -367.16402344 314.40091797 -368.3515625 312.76953125 C-383.49281701 291.41047635 -395.26591167 268.02984065 -403 243 C-403.34901367 241.90244385 -403.34901367 241.90244385 -403.70507812 240.78271484 C-409.47426887 222.46019238 -413.08719477 202.67496161 -413.203125 183.43359375 C-413.21371445 182.25170723 -413.21371445 182.25170723 -413.22451782 181.04594421 C-413.6200621 123.8392117 -398.63069808 71.08179722 -364 25 C-363.51901855 24.35530762 -363.03803711 23.71061523 -362.54248047 23.04638672 C-349.48988936 5.74676765 -333.79413591 -10.55130896 -316 -23 C-315.32437012 -23.47695313 -314.64874023 -23.95390625 -313.95263672 -24.4453125 C-277.9912811 -49.63036963 -236.06692818 -66.71774442 -192 -70 C-191.28038086 -70.06026367 -190.56076172 -70.12052734 -189.81933594 -70.18261719 C-118.49028778 -75.99598075 -51.39511501 -48.63407126 0 0 Z " fill="#F0F0F0" transform="translate(421,78)"/>
<path d="M0 0 C76.23 0 152.46 0 231 0 C231 62 231 62 226 68 C224.38417989 70.05338314 222.7802414 72.11616425 221.1875 74.1875 C220.53358276 75.037677 220.53358276 75.037677 219.86645508 75.9050293 C217.24273372 79.33088305 214.69286242 82.79862304 212.1875 86.3125 C208.27259349 91.75207598 204.04146145 96.90405768 199.79125977 102.08154297 C195.94183816 106.78932328 192.29296336 111.59815516 188.76171875 116.55078125 C185.39701602 121.2285387 181.80240381 125.73118468 178.21875 130.2421875 C174.69177111 134.71278793 171.42288725 139.25289021 168.359375 144.0546875 C167.03731373 145.94660276 165.63030877 147.37363871 164 149 C162.45546949 150.94412464 160.9376644 152.89732426 159.4375 154.875 C158.54565241 156.04302945 157.65372294 157.21099638 156.76171875 158.37890625 C156.30587402 158.97719238 155.8500293 159.57547852 155.38037109 160.19189453 C153.60473671 162.51774318 151.81795037 164.83488107 150.03076172 167.15185547 C146.4607012 171.78082071 142.91834387 176.42840582 139.421875 181.11328125 C136.16084596 185.44041594 132.8067704 189.69729278 129.4621582 193.95996094 C125.23517547 199.36493593 121.12064296 204.84241364 117.0625 210.375 C116.49337891 211.1484375 115.92425781 211.921875 115.33789062 212.71875 C110.86975265 218.79662118 106.43699581 224.89913076 102 231 C145.56 231 189.12 231 234 231 C234 254.76 234 278.52 234 303 C203.44243953 303.02202652 172.88488634 303.04049794 142.32732046 303.05106533 C138.72350334 303.05231611 135.11968624 303.05361042 131.51586914 303.05493164 C130.43964129 303.05532511 130.43964129 303.05532511 129.34167146 303.05572652 C117.70906332 303.06008331 106.07646009 303.06797091 94.44385488 303.0771528 C82.51656947 303.08648909 70.58928665 303.09205556 58.66199774 303.09408849 C51.95891102 303.09534006 45.25583457 303.0983618 38.55275154 303.10573006 C32.25164821 303.11248607 25.95056072 303.11461782 19.64945412 303.11310768 C17.32940332 303.1133842 15.00935203 303.11539179 12.68930435 303.11920547 C9.53671057 303.12413618 6.38417765 303.1230006 3.23158264 303.12025452 C2.30066789 303.12316736 1.36975314 303.1260802 0.41062886 303.12908131 C-5.88587879 303.11412121 -5.88587879 303.11412121 -7 302 C-7.16208528 300.14838936 -7.25463123 298.29065317 -7.31982422 296.43310547 C-7.36170868 295.24030975 -7.40359314 294.04751404 -7.44674683 292.818573 C-7.57763097 288.02729558 -7.68245795 283.23616981 -7.75568962 278.44366264 C-7.81193183 274.81547439 -7.89254716 271.19180732 -8.03564453 267.56591797 C-9.06067009 240.946122 -9.06067009 240.946122 -2.48220825 232.70108032 C-0.28932896 230.38820743 1.9924463 228.2912574 4.47247314 226.29093933 C6.6399371 224.4591781 8.29745458 222.32161855 10 220.0625 C13.45838422 215.67357596 16.97125369 211.33237175 20.5 207 C24.7280537 201.80467361 28.93348693 196.59287458 33.109375 191.35546875 C35.97300321 187.78776666 38.88000914 184.25587927 41.78125 180.71875 C43.87063426 178.15851858 45.93964482 175.58361998 48 173 C51.53418385 168.57002302 55.11207995 164.17764182 58.70703125 159.796875 C60.25008206 157.91472103 61.78907748 156.02923578 63.32421875 154.140625 C66.7159581 149.97149208 70.11704403 145.83024387 73.6875 141.8125 C76.42634318 138.71641641 78.90636785 135.50025146 81.359375 132.17578125 C86.66309037 125.14204443 92.43317897 118.47755128 98.1875 111.8125 C101.81165925 107.6118979 105.3242258 103.39234134 108.59375 98.90625 C111.59733014 94.83473025 114.8114065 90.92700462 118 87 C118.42958008 86.46665039 118.85916016 85.93330078 119.30175781 85.38378906 C120.65311297 83.70888364 122.0129743 82.04123448 123.375 80.375 C124.20773437 79.35148437 125.04046875 78.32796875 125.8984375 77.2734375 C126.59195313 76.52320313 127.28546875 75.77296875 128 75 C128.66 75 129.32 75 130 75 C130 74.01 130 73.02 130 72 C87.1 72 44.2 72 0 72 C0 48.24 0 24.48 0 0 Z " fill="#010101" transform="translate(136,96)"/>
<path d="M0 0 C0.66 0.66 1.32 1.32 2 2 C0.35 3.32 -1.3 4.64 -3 6 C-3.66 5.67 -4.32 5.34 -5 5 C-3.35 3.35 -1.7 1.7 0 0 Z M-7 7 C-7 11.44351941 -9.93187039 13.42365446 -12.875 16.4375 C-13.98080062 17.57793707 -15.08250806 18.7223601 -16.1796875 19.87109375 C-16.67194824 20.37568115 -17.16420898 20.88026855 -17.67138672 21.40014648 C-19.13153215 23.15838482 -19.99558986 24.95503864 -21 27 C-22.91015625 28.8515625 -22.91015625 28.8515625 -25.0625 30.625 C-27.97875712 32.95485552 -27.97875712 32.95485552 -30 36 C-30.66 35.67 -31.32 35.34 -32 35 C-24.41508811 24.81454689 -16.1556802 15.79479938 -7 7 Z " fill="#E7E7E7" transform="translate(90,67)"/>
<path d="M0 0 C4.15654169 3.39762256 7.71323013 6.72719917 11 11 C12.64646685 12.68662458 14.31183067 14.35511706 16 16 C17 17 18 18 19 19 C18.67 19.66 18.34 20.32 18 21 C15.74578295 18.77506435 13.49741331 16.54430627 11.25 14.3125 C10.29867187 13.37374023 10.29867187 13.37374023 9.328125 12.41601562 C5.99803231 9.10326716 2.73677842 5.83563642 0 2 C0 1.34 0 0.68 0 0 Z " fill="#E4E4E4" transform="translate(62,401)"/>
<path d="M0 0 C1 3 1 3 -0.546875 6.6171875 C-1.27109606 8.04166642 -2.00594254 9.46078119 -2.75 10.875 C-3.1109375 11.58269531 -3.471875 12.29039062 -3.84375 13.01953125 C-5.76810206 16.76365101 -7.78149753 20.41950551 -10 24 C-11 21 -11 21 -9.4375 17.5 C-8.63675026 15.99369455 -7.82267442 14.49444406 -7 13 C-6.22269531 11.56527344 -6.22269531 11.56527344 -5.4296875 10.1015625 C-4.38123031 8.17179347 -3.32812439 6.24454003 -2.26953125 4.3203125 C-1.48872343 2.89323606 -0.72748993 1.45497987 0 0 Z " fill="#E3E3E3" transform="translate(471,345)"/>
<path d="M0 0 C0.33 0.99 0.66 1.98 1 3 C-4.28 6.63 -9.56 10.26 -15 14 C-15.66 13.67 -16.32 13.34 -17 13 C-13.71260831 10.26050693 -10.29434726 7.73415441 -6.8125 5.25 C-5.95269531 4.63640625 -5.09289062 4.0228125 -4.20703125 3.390625 C-2 2 -2 2 0 2 C0 1.34 0 0.68 0 0 Z " fill="#E3E2E2" transform="translate(393,442)"/>
<path d="M0 0 C-3.57767734 2.34785076 -7.11412384 3.87003876 -11.1328125 5.25390625 C-13.2791871 6.03708445 -13.2791871 6.03708445 -16 8 C-16.66 7.34 -17.32 6.68 -18 6 C-15.56781941 4.80036357 -13.13029422 3.61515562 -10.6875 2.4375 C-9.99720703 2.09525391 -9.30691406 1.75300781 -8.59570312 1.40039062 C-3.33984375 -1.11328125 -3.33984375 -1.11328125 0 0 Z " fill="#E3E3E3" transform="translate(159,27)"/>
<path d="M0 0 C-0.93972656 0.41572266 -0.93972656 0.41572266 -1.8984375 0.83984375 C-2.71570313 1.20207031 -3.53296875 1.56429688 -4.375 1.9375 C-5.18710938 2.29714844 -5.99921875 2.65679688 -6.8359375 3.02734375 C-8.23683785 3.6569903 -9.62625284 4.31312642 -11 5 C-11 4.34 -11 3.68 -11 3 C-12.65 3.66 -14.3 4.32 -16 5 C-16 4.34 -16 3.68 -16 3 C-14.08802961 2.29954544 -12.17019565 1.615081 -10.25 0.9375 C-9.18265625 0.55464844 -8.1153125 0.17179687 -7.015625 -0.22265625 C-4.07719958 -0.98010011 -2.77651052 -1.07151741 0 0 Z " fill="#E7E7E7" transform="translate(189,17)"/>
<path d="M0 0 C2.44168979 3.03056792 4.13027389 6.09018596 5.75 9.625 C6.19859375 10.58664063 6.6471875 11.54828125 7.109375 12.5390625 C7.40328125 13.35117188 7.6971875 14.16328125 8 15 C7.67 15.66 7.34 16.32 7 17 C3.77724275 12.00472626 0 6.05840825 0 0 Z " fill="#DEDEDE" transform="translate(464,138)"/>
<path d="M0 0 C0.33 0.66 0.66 1.32 1 2 C-1.97 5.63 -4.94 9.26 -8 13 C-8.66 12.67 -9.32 12.34 -10 12 C-6.7 8.04 -3.4 4.08 0 0 Z " fill="#424242" transform="translate(224,220)"/>
<path d="M0 0 C0 0.99 0 1.98 0 3 C-1.75 4.38671875 -1.75 4.38671875 -4 5.6875 C-4.7425 6.12449219 -5.485 6.56148437 -6.25 7.01171875 C-6.8275 7.33785156 -7.405 7.66398437 -8 8 C-8 7.01 -8 6.02 -8 5 C-6.25 3.61328125 -6.25 3.61328125 -4 2.3125 C-3.2575 1.87550781 -2.515 1.43851563 -1.75 0.98828125 C-1.1725 0.66214844 -0.595 0.33601563 0 0 Z " fill="#E4E4E4" transform="translate(120,45)"/>
<path d="M0 0 C3.99500618 1.3697164 6.80009492 3.25722422 10 6 C9.67 6.66 9.34 7.32 9 8 C6.5 6.625 6.5 6.625 4 5 C4 4.34 4 3.68 4 3 C2.68 3 1.36 3 0 3 C0 2.01 0 1.02 0 0 Z " fill="#E4E4E4" transform="translate(387,51)"/>
<path d="M0 0 C2.25 0.125 2.25 0.125 5 1 C7.3125 4.0625 7.3125 4.0625 9 7 C5.18315774 5.44499019 2.80804268 2.96404505 0 0 Z " fill="#E9E8E9" transform="translate(103,441)"/>
<path d="M0 0 C0.33 0.66 0.66 1.32 1 2 C-1.31537955 5.72114571 -3.28579473 8.61229661 -7 11 C-5.22054913 6.95579349 -2.60470327 3.53921513 0 0 Z " fill="#BABABA" transform="translate(254,304)"/>
<path d="M0 0 C0.33 0.99 0.66 1.98 1 3 C-0.98 4.98 -2.96 6.96 -5 9 C-5.66 8.67 -6.32 8.34 -7 8 C-4.69 5.36 -2.38 2.72 0 0 Z " fill="#252525" transform="translate(239,202)"/>
<path d="M0 0 C0.66 1.32 1.32 2.64 2 4 C-1.75 7 -1.75 7 -4 7 C-2.79618552 4.50638429 -1.54571278 2.31856917 0 0 Z " fill="#C6C6C6" transform="translate(338,194)"/>
<path d="M0 0 C0.99 0.66 1.98 1.32 3 2 C1.68 3.32 0.36 4.64 -1 6 C-1.99 5.67 -2.98 5.34 -4 5 C-2.68 3.35 -1.36 1.7 0 0 Z " fill="#C8C8C8" transform="translate(329,206)"/>
<path d="" fill="#FFFFFF" transform="translate(0,0)"/>
<path d="" fill="#FFFFFF" transform="translate(0,0)"/>
<path d="" fill="#FFFFFF" transform="translate(0,0)"/>
<path d="" fill="#FFFFFF" transform="translate(0,0)"/>
<path d="" fill="#FFFFFF" transform="translate(0,0)"/>
<path d="" fill="#FFFFFF" transform="translate(0,0)"/>
<path d="" fill="#FFFFFF" transform="translate(0,0)"/>
<path d="" fill="#FFFFFF" transform="translate(0,0)"/>
<path d="" fill="#FFFFFF" transform="translate(0,0)"/>
<path d="" fill="#FFFFFF" transform="translate(0,0)"/>
<path d="" fill="#FFFFFF" transform="translate(0,0)"/>
<path d="" fill="#FFFFFF" transform="translate(0,0)"/>
<path d="" fill="#FFFFFF" transform="translate(0,0)"/>
<path d="" fill="#FFFFFF" transform="translate(0,0)"/>
<path d="" fill="#FFFFFF" transform="translate(0,0)"/>
<path d="" fill="#FFFFFF" transform="translate(0,0)"/>
<path d="" fill="#FFFFFF" transform="translate(0,0)"/>
<path d="" fill="#FFFFFF" transform="translate(0,0)"/>
<path d="" fill="#FFFFFF" transform="translate(0,0)"/>
<path d="" fill="#FFFFFF" transform="translate(0,0)"/>
<path d="" fill="#FFFFFF" transform="translate(0,0)"/>
<path d="" fill="#FFFFFF" transform="translate(0,0)"/>
<path d="" fill="#FFFFFF" transform="translate(0,0)"/>
<path d="" fill="#FFFFFF" transform="translate(0,0)"/>
<path d="" fill="#FFFFFF" transform="translate(0,0)"/>
</svg>
